<mxfile host="app.diagrams.net" agent="Mozilla/5.0 (Windows NT 10.0; Win64; x64) AppleWebKit/537.36 (KHTML, like Gecko) Chrome/133.0.0.0 Safari/537.36 Edg/133.0.0.0" version="26.1.0">
  <diagram name="Page-1" id="eVyzeBEwOfPWe5HDv6A0">
    <mxGraphModel dx="1424" dy="717" grid="1" gridSize="10" guides="1" tooltips="1" connect="1" arrows="1" fold="1" page="1" pageScale="1" pageWidth="850" pageHeight="1100" math="0" shadow="0">
      <root>
        <mxCell id="0" />
        <mxCell id="1" parent="0" />
        <mxCell id="2Im8cjXlJ0PpqpyiIJp1-1" value="" style="edgeStyle=orthogonalEdgeStyle;rounded=0;orthogonalLoop=1;jettySize=auto;html=1;" parent="1" source="2Im8cjXlJ0PpqpyiIJp1-2" target="2Im8cjXlJ0PpqpyiIJp1-4" edge="1">
          <mxGeometry relative="1" as="geometry" />
        </mxCell>
        <mxCell id="2Im8cjXlJ0PpqpyiIJp1-2" value="Entry" style="ellipse;whiteSpace=wrap;html=1;fillColor=#d5e8d4;strokeColor=light-dark(#000000,#446E2C);strokeWidth=0.5;" parent="1" vertex="1">
          <mxGeometry x="371.25" y="90" width="60" height="30" as="geometry" />
        </mxCell>
        <mxCell id="2Im8cjXlJ0PpqpyiIJp1-3" value="" style="edgeStyle=orthogonalEdgeStyle;rounded=0;orthogonalLoop=1;jettySize=auto;html=1;entryX=0.5;entryY=0;entryDx=0;entryDy=0;" parent="1" source="2Im8cjXlJ0PpqpyiIJp1-4" target="2Im8cjXlJ0PpqpyiIJp1-5" edge="1">
          <mxGeometry relative="1" as="geometry">
            <mxPoint x="360" y="250" as="targetPoint" />
          </mxGeometry>
        </mxCell>
        <mxCell id="2Im8cjXlJ0PpqpyiIJp1-4" value="(0) def&amp;nbsp;calculate_electricity_bill (kwh, household_type)" style="rounded=0;whiteSpace=wrap;html=1;fillColor=#dae8fc;strokeColor=light-dark(#000000,#446E2C);strokeWidth=0.5;" parent="1" vertex="1">
          <mxGeometry x="312.5" y="160" width="177.5" height="90" as="geometry" />
        </mxCell>
        <mxCell id="2Im8cjXlJ0PpqpyiIJp1-42" value="" style="edgeStyle=orthogonalEdgeStyle;rounded=0;orthogonalLoop=1;jettySize=auto;html=1;" parent="1" source="2Im8cjXlJ0PpqpyiIJp1-5" target="2Im8cjXlJ0PpqpyiIJp1-25" edge="1">
          <mxGeometry relative="1" as="geometry" />
        </mxCell>
        <mxCell id="2Im8cjXlJ0PpqpyiIJp1-43" value="" style="edgeStyle=orthogonalEdgeStyle;rounded=0;orthogonalLoop=1;jettySize=auto;html=1;" parent="1" source="2Im8cjXlJ0PpqpyiIJp1-5" target="2Im8cjXlJ0PpqpyiIJp1-26" edge="1">
          <mxGeometry relative="1" as="geometry" />
        </mxCell>
        <mxCell id="2Im8cjXlJ0PpqpyiIJp1-5" value="(1)&amp;nbsp;&lt;br&gt;kwh &amp;lt; 0 or &lt;br&gt;kwh &amp;gt; 10000 or &lt;br&gt;(household_type != &#39;residential&#39;and &lt;br&gt;household_type != &#39;business&#39;)" style="rhombus;whiteSpace=wrap;html=1;fillColor=#fff2cc;strokeColor=light-dark(#000000,#446E2C);strokeWidth=0.5;" parent="1" vertex="1">
          <mxGeometry x="262.5" y="280" width="277.5" height="170" as="geometry" />
        </mxCell>
        <mxCell id="2Im8cjXlJ0PpqpyiIJp1-22" value="" style="edgeStyle=orthogonalEdgeStyle;rounded=0;orthogonalLoop=1;jettySize=auto;html=1;exitX=0.5;exitY=1;exitDx=0;exitDy=0;entryX=0.5;entryY=0;entryDx=0;entryDy=0;" parent="1" source="2Im8cjXlJ0PpqpyiIJp1-40" target="2Im8cjXlJ0PpqpyiIJp1-41" edge="1">
          <mxGeometry relative="1" as="geometry">
            <mxPoint x="399.07" y="1150" as="sourcePoint" />
            <mxPoint x="399.07000000000016" y="1160" as="targetPoint" />
          </mxGeometry>
        </mxCell>
        <mxCell id="2Im8cjXlJ0PpqpyiIJp1-64" style="edgeStyle=orthogonalEdgeStyle;rounded=0;orthogonalLoop=1;jettySize=auto;html=1;endArrow=classic;startFill=0;entryX=1;entryY=0.5;entryDx=0;entryDy=0;endFill=1;" parent="1" source="2Im8cjXlJ0PpqpyiIJp1-25" target="2Im8cjXlJ0PpqpyiIJp1-65" edge="1">
          <mxGeometry relative="1" as="geometry">
            <mxPoint x="460" y="1175" as="targetPoint" />
            <Array as="points">
              <mxPoint x="780" y="365" />
              <mxPoint x="780" y="1265" />
            </Array>
          </mxGeometry>
        </mxCell>
        <mxCell id="2Im8cjXlJ0PpqpyiIJp1-25" value="(2) return &#39;Đầu vào không hợp lệ&#39;" style="rounded=0;whiteSpace=wrap;html=1;fillColor=#dae8fc;strokeColor=light-dark(#000000,#446E2C);strokeWidth=0.5;" parent="1" vertex="1">
          <mxGeometry x="590" y="330" width="130" height="70" as="geometry" />
        </mxCell>
        <mxCell id="2Im8cjXlJ0PpqpyiIJp1-29" value="" style="edgeStyle=orthogonalEdgeStyle;rounded=0;orthogonalLoop=1;jettySize=auto;html=1;" parent="1" source="2Im8cjXlJ0PpqpyiIJp1-26" target="2Im8cjXlJ0PpqpyiIJp1-27" edge="1">
          <mxGeometry relative="1" as="geometry" />
        </mxCell>
        <mxCell id="2Im8cjXlJ0PpqpyiIJp1-30" value="" style="edgeStyle=orthogonalEdgeStyle;rounded=0;orthogonalLoop=1;jettySize=auto;html=1;" parent="1" target="2Im8cjXlJ0PpqpyiIJp1-28" edge="1">
          <mxGeometry relative="1" as="geometry">
            <mxPoint x="343.75" y="530" as="sourcePoint" />
          </mxGeometry>
        </mxCell>
        <mxCell id="2Im8cjXlJ0PpqpyiIJp1-26" value="(3)&amp;nbsp;household_type == &quot;residential&quot;" style="rhombus;whiteSpace=wrap;html=1;fillColor=#fff2cc;strokeColor=light-dark(#000000,#446E2C);strokeWidth=0.5;" parent="1" vertex="1">
          <mxGeometry x="320" y="480" width="162.5" height="100" as="geometry" />
        </mxCell>
        <mxCell id="2Im8cjXlJ0PpqpyiIJp1-46" style="edgeStyle=orthogonalEdgeStyle;rounded=0;orthogonalLoop=1;jettySize=auto;html=1;entryX=1;entryY=0.5;entryDx=0;entryDy=0;exitX=0.5;exitY=1;exitDx=0;exitDy=0;" parent="1" source="2Im8cjXlJ0PpqpyiIJp1-27" target="2Im8cjXlJ0PpqpyiIJp1-33" edge="1">
          <mxGeometry relative="1" as="geometry">
            <Array as="points">
              <mxPoint x="600" y="565" />
              <mxPoint x="600" y="650" />
            </Array>
          </mxGeometry>
        </mxCell>
        <mxCell id="2Im8cjXlJ0PpqpyiIJp1-27" value="(4) rates = [1678, 1734, 2014, 2536]" style="rounded=0;whiteSpace=wrap;html=1;fillColor=#dae8fc;strokeColor=light-dark(#000000,#446E2C);strokeWidth=0.5;" parent="1" vertex="1">
          <mxGeometry x="530" y="495" width="130" height="70" as="geometry" />
        </mxCell>
        <mxCell id="2Im8cjXlJ0PpqpyiIJp1-45" style="edgeStyle=orthogonalEdgeStyle;rounded=0;orthogonalLoop=1;jettySize=auto;html=1;entryX=0;entryY=0.5;entryDx=0;entryDy=0;" parent="1" source="2Im8cjXlJ0PpqpyiIJp1-28" edge="1">
          <mxGeometry relative="1" as="geometry">
            <mxPoint x="360" y="650" as="targetPoint" />
            <Array as="points">
              <mxPoint x="223.75" y="650" />
            </Array>
          </mxGeometry>
        </mxCell>
        <mxCell id="2Im8cjXlJ0PpqpyiIJp1-28" value="(5) rates = [2500, 2800, 3000, 3500]" style="rounded=0;whiteSpace=wrap;html=1;fillColor=#dae8fc;strokeColor=light-dark(#000000,#446E2C);strokeWidth=0.5;" parent="1" vertex="1">
          <mxGeometry x="153.75" y="495" width="130" height="70" as="geometry" />
        </mxCell>
        <mxCell id="2Im8cjXlJ0PpqpyiIJp1-31" value="T" style="text;html=1;align=center;verticalAlign=middle;whiteSpace=wrap;rounded=0;" parent="1" vertex="1">
          <mxGeometry x="470" y="510" width="60" height="30" as="geometry" />
        </mxCell>
        <mxCell id="2Im8cjXlJ0PpqpyiIJp1-32" value="F" style="text;html=1;align=center;verticalAlign=middle;whiteSpace=wrap;rounded=0;" parent="1" vertex="1">
          <mxGeometry x="276.25" y="500" width="60" height="30" as="geometry" />
        </mxCell>
        <mxCell id="2Im8cjXlJ0PpqpyiIJp1-47" value="" style="edgeStyle=orthogonalEdgeStyle;rounded=0;orthogonalLoop=1;jettySize=auto;html=1;" parent="1" source="2Im8cjXlJ0PpqpyiIJp1-33" target="2Im8cjXlJ0PpqpyiIJp1-34" edge="1">
          <mxGeometry relative="1" as="geometry" />
        </mxCell>
        <mxCell id="2Im8cjXlJ0PpqpyiIJp1-33" value="(6) result = 0" style="rounded=0;whiteSpace=wrap;html=1;fillColor=#dae8fc;strokeColor=light-dark(#000000,#446E2C);strokeWidth=0.5;" parent="1" vertex="1">
          <mxGeometry x="336.25" y="615" width="130" height="70" as="geometry" />
        </mxCell>
        <mxCell id="2Im8cjXlJ0PpqpyiIJp1-48" value="" style="edgeStyle=orthogonalEdgeStyle;rounded=0;orthogonalLoop=1;jettySize=auto;html=1;" parent="1" source="2Im8cjXlJ0PpqpyiIJp1-34" target="2Im8cjXlJ0PpqpyiIJp1-37" edge="1">
          <mxGeometry relative="1" as="geometry" />
        </mxCell>
        <mxCell id="2Im8cjXlJ0PpqpyiIJp1-50" value="" style="edgeStyle=orthogonalEdgeStyle;rounded=0;orthogonalLoop=1;jettySize=auto;html=1;" parent="1" source="2Im8cjXlJ0PpqpyiIJp1-34" target="2Im8cjXlJ0PpqpyiIJp1-35" edge="1">
          <mxGeometry relative="1" as="geometry" />
        </mxCell>
        <mxCell id="2Im8cjXlJ0PpqpyiIJp1-34" value="(7) kwh &amp;lt;= 50" style="rhombus;whiteSpace=wrap;html=1;fillColor=#fff2cc;strokeColor=light-dark(#000000,#446E2C);strokeWidth=0.5;" parent="1" vertex="1">
          <mxGeometry x="336.25" y="710" width="127.5" height="70" as="geometry" />
        </mxCell>
        <mxCell id="2Im8cjXlJ0PpqpyiIJp1-51" value="" style="edgeStyle=orthogonalEdgeStyle;rounded=0;orthogonalLoop=1;jettySize=auto;html=1;" parent="1" source="2Im8cjXlJ0PpqpyiIJp1-35" target="2Im8cjXlJ0PpqpyiIJp1-38" edge="1">
          <mxGeometry relative="1" as="geometry" />
        </mxCell>
        <mxCell id="2Im8cjXlJ0PpqpyiIJp1-55" value="" style="edgeStyle=orthogonalEdgeStyle;rounded=0;orthogonalLoop=1;jettySize=auto;html=1;" parent="1" source="2Im8cjXlJ0PpqpyiIJp1-35" target="2Im8cjXlJ0PpqpyiIJp1-36" edge="1">
          <mxGeometry relative="1" as="geometry" />
        </mxCell>
        <mxCell id="2Im8cjXlJ0PpqpyiIJp1-35" value="(9) kwh &amp;lt;= 100" style="rhombus;whiteSpace=wrap;html=1;fillColor=#fff2cc;strokeColor=light-dark(#000000,#446E2C);strokeWidth=0.5;" parent="1" vertex="1">
          <mxGeometry x="339.38" y="820" width="121.25" height="70" as="geometry" />
        </mxCell>
        <mxCell id="2Im8cjXlJ0PpqpyiIJp1-56" value="" style="edgeStyle=orthogonalEdgeStyle;rounded=0;orthogonalLoop=1;jettySize=auto;html=1;" parent="1" source="2Im8cjXlJ0PpqpyiIJp1-36" target="2Im8cjXlJ0PpqpyiIJp1-39" edge="1">
          <mxGeometry relative="1" as="geometry" />
        </mxCell>
        <mxCell id="2Im8cjXlJ0PpqpyiIJp1-59" value="" style="edgeStyle=orthogonalEdgeStyle;rounded=0;orthogonalLoop=1;jettySize=auto;html=1;" parent="1" source="2Im8cjXlJ0PpqpyiIJp1-36" target="2Im8cjXlJ0PpqpyiIJp1-40" edge="1">
          <mxGeometry relative="1" as="geometry" />
        </mxCell>
        <mxCell id="2Im8cjXlJ0PpqpyiIJp1-36" value="(11) kwh &amp;lt;= 200" style="rhombus;whiteSpace=wrap;html=1;fillColor=#fff2cc;strokeColor=light-dark(#000000,#446E2C);strokeWidth=0.5;" parent="1" vertex="1">
          <mxGeometry x="339.38" y="930" width="119.37" height="70" as="geometry" />
        </mxCell>
        <mxCell id="2Im8cjXlJ0PpqpyiIJp1-60" style="edgeStyle=orthogonalEdgeStyle;rounded=0;orthogonalLoop=1;jettySize=auto;html=1;exitX=1;exitY=0.5;exitDx=0;exitDy=0;endArrow=none;startFill=0;" parent="1" edge="1">
          <mxGeometry relative="1" as="geometry">
            <mxPoint x="667.5" y="760" as="sourcePoint" />
            <mxPoint x="478.75" y="1190" as="targetPoint" />
            <Array as="points">
              <mxPoint x="760" y="760" />
              <mxPoint x="760" y="1190" />
            </Array>
          </mxGeometry>
        </mxCell>
        <mxCell id="2Im8cjXlJ0PpqpyiIJp1-37" value="(8)&amp;nbsp;result = kwh * rates[0]" style="rounded=0;whiteSpace=wrap;html=1;fillColor=#dae8fc;strokeColor=light-dark(#000000,#446E2C);strokeWidth=0.5;" parent="1" vertex="1">
          <mxGeometry x="538.75" y="710" width="130" height="70" as="geometry" />
        </mxCell>
        <mxCell id="2Im8cjXlJ0PpqpyiIJp1-61" style="edgeStyle=orthogonalEdgeStyle;rounded=0;orthogonalLoop=1;jettySize=auto;html=1;endArrow=none;startFill=0;" parent="1" source="2Im8cjXlJ0PpqpyiIJp1-38" edge="1">
          <mxGeometry relative="1" as="geometry">
            <mxPoint x="460" y="1190" as="targetPoint" />
            <Array as="points">
              <mxPoint x="759" y="855" />
              <mxPoint x="759" y="1190" />
              <mxPoint x="490" y="1190" />
            </Array>
          </mxGeometry>
        </mxCell>
        <mxCell id="2Im8cjXlJ0PpqpyiIJp1-38" value="(10)&amp;nbsp;&lt;br&gt;result = (kwh - 50) * rates[1] + 50 * rates[0]" style="rounded=0;whiteSpace=wrap;html=1;fillColor=#dae8fc;strokeColor=light-dark(#000000,#446E2C);strokeWidth=0.5;" parent="1" vertex="1">
          <mxGeometry x="538.75" y="820" width="130" height="70" as="geometry" />
        </mxCell>
        <mxCell id="2Im8cjXlJ0PpqpyiIJp1-63" style="edgeStyle=orthogonalEdgeStyle;rounded=0;orthogonalLoop=1;jettySize=auto;html=1;" parent="1" source="2Im8cjXlJ0PpqpyiIJp1-39" target="2Im8cjXlJ0PpqpyiIJp1-41" edge="1">
          <mxGeometry relative="1" as="geometry">
            <mxPoint x="480" y="1175" as="targetPoint" />
            <Array as="points">
              <mxPoint x="759" y="965" />
              <mxPoint x="759" y="1190" />
            </Array>
          </mxGeometry>
        </mxCell>
        <mxCell id="2Im8cjXlJ0PpqpyiIJp1-39" value="(12)&amp;nbsp;&lt;br&gt;result = (kwh - 100) * rates[2] + 50 * rates[1] + 50 * rates[0]" style="rounded=0;whiteSpace=wrap;html=1;fillColor=#dae8fc;strokeColor=light-dark(#000000,#446E2C);strokeWidth=0.5;" parent="1" vertex="1">
          <mxGeometry x="538.75" y="930" width="130" height="70" as="geometry" />
        </mxCell>
        <mxCell id="2Im8cjXlJ0PpqpyiIJp1-40" value="(13)&amp;nbsp;&lt;br&gt;result = (kwh - 200) * rates[3] + 100 * rates[2] + 50 * rates[1] + 50 * rates[0]" style="rounded=0;whiteSpace=wrap;html=1;fillColor=#dae8fc;strokeColor=light-dark(#000000,#446E2C);strokeWidth=0.5;" parent="1" vertex="1">
          <mxGeometry x="321.25" y="1040" width="157.5" height="80" as="geometry" />
        </mxCell>
        <mxCell id="2Im8cjXlJ0PpqpyiIJp1-66" value="" style="edgeStyle=orthogonalEdgeStyle;rounded=0;orthogonalLoop=1;jettySize=auto;html=1;" parent="1" source="2Im8cjXlJ0PpqpyiIJp1-41" target="2Im8cjXlJ0PpqpyiIJp1-65" edge="1">
          <mxGeometry relative="1" as="geometry" />
        </mxCell>
        <mxCell id="2Im8cjXlJ0PpqpyiIJp1-41" value="(14) return result" style="rounded=0;whiteSpace=wrap;html=1;fillColor=#dae8fc;strokeColor=light-dark(#000000,#446E2C);strokeWidth=0.5;" parent="1" vertex="1">
          <mxGeometry x="344.37" y="1160" width="111.25" height="60" as="geometry" />
        </mxCell>
        <mxCell id="2Im8cjXlJ0PpqpyiIJp1-49" value="T" style="text;html=1;align=center;verticalAlign=middle;whiteSpace=wrap;rounded=0;" parent="1" vertex="1">
          <mxGeometry x="468.75" y="720" width="60" height="30" as="geometry" />
        </mxCell>
        <mxCell id="2Im8cjXlJ0PpqpyiIJp1-53" value="F" style="text;html=1;align=center;verticalAlign=middle;whiteSpace=wrap;rounded=0;" parent="1" vertex="1">
          <mxGeometry x="360" y="780" width="60" height="30" as="geometry" />
        </mxCell>
        <mxCell id="2Im8cjXlJ0PpqpyiIJp1-54" value="T" style="text;html=1;align=center;verticalAlign=middle;whiteSpace=wrap;rounded=0;" parent="1" vertex="1">
          <mxGeometry x="463.75" y="830" width="60" height="30" as="geometry" />
        </mxCell>
        <mxCell id="2Im8cjXlJ0PpqpyiIJp1-57" value="T" style="text;html=1;align=center;verticalAlign=middle;whiteSpace=wrap;rounded=0;" parent="1" vertex="1">
          <mxGeometry x="468.75" y="940" width="60" height="30" as="geometry" />
        </mxCell>
        <mxCell id="2Im8cjXlJ0PpqpyiIJp1-58" value="F" style="text;html=1;align=center;verticalAlign=middle;whiteSpace=wrap;rounded=0;" parent="1" vertex="1">
          <mxGeometry x="360" y="890" width="60" height="30" as="geometry" />
        </mxCell>
        <mxCell id="2Im8cjXlJ0PpqpyiIJp1-65" value="end" style="ellipse;whiteSpace=wrap;html=1;fillColor=#d5e8d4;strokeColor=light-dark(#000000,#446E2C);strokeWidth=0.5;" parent="1" vertex="1">
          <mxGeometry x="370" y="1250" width="60" height="30" as="geometry" />
        </mxCell>
        <mxCell id="11j1s2oDWbMip6SfGG6K-1" value="T" style="text;html=1;align=center;verticalAlign=middle;whiteSpace=wrap;rounded=0;" vertex="1" parent="1">
          <mxGeometry x="530" y="340" width="60" height="30" as="geometry" />
        </mxCell>
        <mxCell id="11j1s2oDWbMip6SfGG6K-2" value="F" style="text;html=1;align=center;verticalAlign=middle;whiteSpace=wrap;rounded=0;" vertex="1" parent="1">
          <mxGeometry x="360" y="450" width="60" height="30" as="geometry" />
        </mxCell>
      </root>
    </mxGraphModel>
  </diagram>
</mxfile>
